<?xml version="1.0" standalone="no"?>
<!DOCTYPE svg PUBLIC "-//W3C//DTD SVG 20010904//EN"
 "http://www.w3.org/TR/2001/REC-SVG-20010904/DTD/svg10.dtd">
<svg version="1.0" xmlns="http://www.w3.org/2000/svg"
 width="294.000000pt" height="107.000000pt" viewBox="0 0 294.000000 107.000000"
 preserveAspectRatio="xMidYMid meet">

<g transform="translate(0.000000,107.000000) scale(0.100000,-0.100000)"
fill="#000000" stroke="none">
<path d="M0 535 l0 -535 1470 0 1470 0 0 535 0 535 -1470 0 -1470 0 0 -535z
m568 334 c52 -14 62 -34 62 -122 0 -73 -16 -190 -29 -215 -5 -9 -22 -44 -37
-77 -19 -41 -52 -84 -105 -138 -92 -92 -86 -93 -191 14 -81 82 -123 160 -148
278 -21 93 -16 219 8 243 36 36 330 48 440 17z m1514 -57 c15 -16 22 -43 19
-84 -2 -29 -24 -20 -53 22 -45 66 -138 67 -208 4 -46 -42 -63 -88 -63 -165 1
-110 77 -189 182 -189 60 0 73 16 69 85 l-3 59 -37 9 c-39 9 -50 30 -22 41 9
3 63 6 121 6 93 0 104 -2 101 -17 -2 -9 -14 -20 -28 -23 -23 -5 -25 -11 -30
-79 -6 -81 -15 -93 -83 -112 -108 -29 -253 0 -315 64 -79 81 -82 227 -6 315
57 68 139 94 264 86 53 -3 79 -9 92 -22z m436 -185 l2 -206 31 -22 c16 -11 27
-24 24 -27 -3 -4 -89 -7 -190 -7 -135 -1 -185 2 -185 10 0 7 11 17 25 23 24
11 25 16 25 97 0 74 -3 86 -20 97 -11 7 -20 16 -20 19 0 7 97 59 111 59 5 0 9
-58 9 -130 l0 -129 27 -15 c25 -13 31 -12 57 2 l29 17 -7 175 c-5 148 -9 177
-23 188 -11 8 -13 16 -7 22 12 12 86 39 99 36 6 -2 11 -82 13 -209z m-200 191
c34 -34 -6 -90 -48 -68 -23 12 -28 65 -7 73 22 9 43 7 55 -5z m405 -115 c4
-71 7 -165 7 -211 0 -78 1 -83 25 -94 14 -6 25 -17 25 -25 0 -10 -21 -13 -89
-13 -93 0 -118 10 -79 31 13 7 26 17 31 23 13 20 -4 339 -19 357 -20 22 -18
27 19 43 72 32 73 31 80 -111z m-1766 104 c11 -7 64 -112 118 -232 l22 -50 16
35 c9 19 33 78 53 130 49 129 50 130 145 130 43 0 80 -4 83 -9 8 -12 -14 -28
-44 -33 l-25 -3 -3 -160 c-1 -88 0 -170 3 -182 3 -14 18 -26 41 -33 66 -22 34
-35 -89 -37 -87 -1 -117 1 -117 10 0 7 14 18 30 24 l30 11 0 136 c0 75 -4 136
-8 136 -4 0 -27 -51 -52 -112 -53 -138 -77 -188 -91 -188 -5 0 -18 19 -28 43
-40 90 -121 257 -126 257 -3 0 -5 -58 -5 -130 l0 -130 40 -20 c22 -11 40 -25
40 -30 0 -6 -39 -11 -90 -11 -49 -1 -96 -2 -102 -3 -23 -2 -14 29 9 32 12 2
27 10 34 18 11 14 27 178 28 296 1 57 0 58 -34 72 -34 15 -45 31 -25 38 20 6
135 2 147 -5z m668 -143 c20 -21 16 -58 -8 -62 -9 -2 -31 8 -48 23 -35 29 -63
26 -91 -9 -41 -51 -27 -146 26 -182 21 -13 39 -15 81 -10 59 7 71 -3 33 -28
-33 -21 -98 -33 -136 -25 -60 12 -116 84 -114 144 3 65 47 132 102 154 42 16
136 13 155 -5z"/>
<path d="M185 852 l-50 -17 -2 -100 -3 -100 35 38 c19 20 38 37 42 37 4 0 25
-17 46 -37 l39 -38 32 38 c18 20 38 37 44 37 5 0 24 -16 42 -36 l32 -37 37 37
c20 20 41 36 47 36 6 0 23 -14 39 -30 36 -38 45 -27 45 55 0 94 -4 100 -71
119 -80 22 -284 21 -354 -2z m248 -9 c4 -2 7 -29 7 -59 l0 -54 -70 0 -70 0 0
59 c0 57 1 60 28 64 29 4 92 -2 105 -10z m-208 -45 c4 -14 8 -18 12 -10 5 12
33 18 33 7 0 -4 -7 -19 -15 -35 -12 -24 -22 -30 -48 -30 -28 0 -36 5 -50 35
-14 29 -14 35 -3 35 8 0 16 -6 18 -12 3 -8 9 -4 17 10 15 28 27 28 36 0z m343
-6 c20 20 24 2 7 -31 -13 -25 -22 -31 -49 -31 -28 0 -36 5 -46 30 -7 17 -9 34
-5 38 4 4 10 1 12 -5 7 -20 20 -15 27 10 l6 22 18 -23 c14 -18 20 -20 30 -10z"/>
<path d="M207 593 c-12 -12 -7 -53 9 -78 17 -26 48 -33 60 -14 3 6 19 9 35 5
21 -4 29 -2 29 8 0 8 -8 13 -17 12 -13 -1 -17 5 -15 22 2 21 -1 23 -27 17 -24
-5 -32 -2 -41 14 -11 22 -22 26 -33 14z"/>
<path d="M390 555 c0 -19 5 -35 10 -35 6 0 10 -6 10 -14 0 -20 41 -28 55 -10
8 12 16 13 38 5 19 -7 27 -7 27 0 0 6 -9 13 -20 16 -13 3 -20 14 -20 29 0 21
-3 23 -30 18 -23 -5 -30 -3 -30 10 0 9 -8 16 -20 16 -16 0 -20 -7 -20 -35z"/>
<path d="M300 430 c0 -35 25 -79 43 -76 7 2 20 6 30 11 9 4 28 5 40 1 17 -4
24 -1 24 9 0 8 -9 15 -19 15 -12 0 -18 7 -18 24 0 20 -4 22 -26 18 -18 -3 -30
0 -36 12 -15 27 -38 19 -38 -14z"/>
</g>
</svg>
